<?xml version="1.0" encoding="UTF-8"?>
<svg width="829px" height="73px" viewBox="0 0 829 73" version="1.1" xmlns="http://www.w3.org/2000/svg" xmlns:xlink="http://www.w3.org/1999/xlink">
    <g id="Logo" stroke="none" stroke-width="1" fill="none" fill-rule="evenodd">
        <path d="M37.44,71.04 L37.44,40.032 L38.016,20.64 L37.152,20.64 L24.192,55.104 L11.232,20.64 L10.368,20.64 L10.944,40.032 L10.944,71.04 L0,71.04 L0,4.032 L14.976,4.032 L24.288,28.704 L24.96,28.704 L34.368,4.032 L48.384,4.032 L48.384,71.04 L37.44,71.04 Z M109.097143,71.04 L95.753143,71.04 L91.049143,54.048 L71.177143,54.048 L66.569143,71.04 L53.897143,71.04 L72.713143,4.032 L90.185143,4.032 L109.097143,71.04 Z M88.937143,43.776 L81.545143,16.416 L80.777143,16.416 L73.385143,43.776 L88.937143,43.776 Z M150.322286,71.04 L150.322286,61.728 L149.554286,61.728 C147.346286,67.2 143.026286,72.192 134.482286,72.192 C120.946286,72.192 113.842286,59.616 113.842286,38.016 C113.842286,15.264 121.906286,2.88 138.898286,2.88 C152.338286,2.88 158.866286,10.56 161.554286,20.832 L150.034286,24.096 C148.306286,18.336 145.906286,13.152 138.802286,13.152 C130.450286,13.152 127.186286,20.256 127.186286,31.776 L127.186286,42.528 C127.186286,54.144 130.258286,62.016 139.378286,62.016 C146.482286,62.016 150.322286,57.216 150.322286,50.592 L150.322286,45.12 L138.130286,45.12 L138.130286,36 L161.554286,36 L161.554286,71.04 L150.322286,71.04 Z M202.875429,71.04 L185.307429,22.944 L184.347429,22.944 L184.347429,71.04 L173.595429,71.04 L173.595429,4.032 L189.051429,4.032 L206.619429,52.128 L207.579429,52.128 L207.579429,4.032 L218.331429,4.032 L218.331429,71.04 L202.875429,71.04 Z M230.372572,4.032 L242.948572,4.032 L242.948572,45.792 C242.948572,55.68 243.524572,61.92 253.220572,61.92 C262.916572,61.92 263.492572,55.68 263.492572,45.792 L263.492572,4.032 L276.068572,4.032 L276.068572,43.872 C276.068572,62.688 272.324572,72.192 253.220572,72.192 C234.116572,72.192 230.372572,62.688 230.372572,43.872 L230.372572,4.032 Z M309.709715,72.192 C298.285715,72.192 290.125715,67.872 285.037715,61.344 L292.621715,53.472 C297.613715,59.232 303.469715,61.92 310.093715,61.92 C317.773715,61.92 321.997715,58.272 321.997715,51.84 C321.997715,46.56 319.213715,43.968 311.917715,42.816 L304.813715,41.664 C292.429715,39.552 287.629715,32.064 287.629715,22.752 C287.629715,9.984 296.557715,2.88 311.149715,2.88 C321.613715,2.88 329.293715,6.432 333.901715,12.192 L326.509715,20.064 C322.957715,15.84 317.965715,13.152 311.245715,13.152 C304.045715,13.152 300.301715,16.224 300.301715,22.176 C300.301715,27.264 303.085715,29.76 310.477715,31.008 L317.485715,32.256 C329.005715,34.368 334.669715,40.992 334.669715,50.976 C334.669715,63.456 325.933715,72.192 309.709715,72.192 Z M356.221715,72.192 C351.709715,72.192 349.117715,69.696 349.117715,65.088 C349.117715,64.224 349.213715,62.4 349.405715,61.344 L355.165715,27.936 L340.861715,27.936 L341.917715,21.504 L351.997715,21.504 C355.261715,21.504 356.797715,20.352 357.373715,16.992 L359.581715,4.032 L366.685715,4.032 L363.709715,21.504 L384.157715,21.504 L383.101715,27.936 L362.653715,27.936 L356.509715,64.608 L358.429715,65.76 L380.029715,51.36 L383.773715,56.16 L372.925715,63.84 C363.997715,70.176 360.157715,72.192 356.221715,72.192 Z M388.541715,71.04 L400.445715,0 L407.933715,0 L402.365715,33.216 L402.749715,33.216 C406.397715,25.344 411.293715,20.352 419.261715,20.352 C427.517715,20.352 432.701715,25.632 432.701715,34.656 C432.701715,36.576 432.509715,38.88 432.125715,41.088 L427.133715,71.04 L419.645715,71.04 L424.541715,41.76 C424.925715,39.456 425.021715,37.536 425.021715,36.48 C425.021715,30.624 422.333715,26.976 416.765715,26.976 C412.445715,26.976 409.085715,29.088 406.301715,32.352 C405.245715,33.6 401.597715,38.016 400.637715,43.68 L396.029715,71.04 L388.541715,71.04 Z M460.069715,72.192 C447.589715,72.192 440.485715,65.184 440.485715,50.976 C440.485715,33.024 451.813715,20.352 467.749715,20.352 C477.445715,20.352 484.549715,25.056 484.549715,33.696 C484.549715,40.704 480.037715,49.344 448.453715,50.208 C448.357715,51.168 448.357715,52.224 448.357715,52.416 C448.357715,59.328 450.373715,65.76 460.741715,65.76 C467.845715,65.76 471.973715,62.688 477.541715,54.816 L482.821715,58.08 C477.253715,67.2 470.533715,72.192 460.069715,72.192 Z M467.077715,26.592 C457.093715,26.592 450.565715,32.832 449.125715,44.064 L449.029715,45.024 C473.221715,44.256 476.869715,38.784 476.869715,33.984 C476.869715,29.952 474.277715,26.592 467.077715,26.592 Z M533.125715,71.04 L533.125715,40.032 L533.701715,20.64 L532.837715,20.64 L519.877715,55.104 L506.917715,20.64 L506.053715,20.64 L506.629715,40.032 L506.629715,71.04 L495.685715,71.04 L495.685715,4.032 L510.661715,4.032 L519.973715,28.704 L520.645715,28.704 L530.053715,4.032 L544.069715,4.032 L544.069715,71.04 L533.125715,71.04 Z M604.440001,71.04 L591.096001,71.04 L586.392001,54.048 L566.520001,54.048 L561.912001,71.04 L549.240001,71.04 L568.056001,4.032 L585.528001,4.032 L604.440001,71.04 Z M584.280001,43.776 L576.888001,16.416 L576.120001,16.416 L568.728001,43.776 L584.280001,43.776 Z M645.322287,71.04 L645.322287,61.728 L644.554287,61.728 C642.346287,67.2 638.026287,72.192 629.482287,72.192 C615.946287,72.192 608.842287,59.616 608.842287,38.016 C608.842287,15.264 616.906287,2.88 633.898287,2.88 C647.338287,2.88 653.866287,10.56 656.554287,20.832 L645.034287,24.096 C643.306287,18.336 640.906287,13.152 633.802287,13.152 C625.450287,13.152 622.186287,20.256 622.186287,31.776 L622.186287,42.528 C622.186287,54.144 625.258287,62.016 634.378287,62.016 C641.482287,62.016 645.322287,57.216 645.322287,50.592 L645.322287,45.12 L633.130287,45.12 L633.130287,36 L656.554287,36 L656.554287,71.04 L645.322287,71.04 Z M697.532573,71.04 L679.964573,22.944 L679.004573,22.944 L679.004573,71.04 L668.252573,71.04 L668.252573,4.032 L683.708573,4.032 L701.276573,52.128 L702.236573,52.128 L702.236573,4.032 L712.988573,4.032 L712.988573,71.04 L697.532573,71.04 Z M724.686859,4.032 L737.262859,4.032 L737.262859,45.792 C737.262859,55.68 737.838859,61.92 747.534859,61.92 C757.230859,61.92 757.806859,55.68 757.806859,45.792 L757.806859,4.032 L770.382859,4.032 L770.382859,43.872 C770.382859,62.688 766.638859,72.192 747.534859,72.192 C728.430859,72.192 724.686859,62.688 724.686859,43.872 L724.686859,4.032 Z M803.681145,72.192 C792.257145,72.192 784.097145,67.872 779.009145,61.344 L786.593145,53.472 C791.585145,59.232 797.441145,61.92 804.065145,61.92 C811.745145,61.92 815.969145,58.272 815.969145,51.84 C815.969145,46.56 813.185145,43.968 805.889145,42.816 L798.785145,41.664 C786.401145,39.552 781.601145,32.064 781.601145,22.752 C781.601145,9.984 790.529145,2.88 805.121145,2.88 C815.585145,2.88 823.265145,6.432 827.873145,12.192 L820.481145,20.064 C816.929145,15.84 811.937145,13.152 805.217145,13.152 C798.017145,13.152 794.273145,16.224 794.273145,22.176 C794.273145,27.264 797.057145,29.76 804.449145,31.008 L811.457145,32.256 C822.977145,34.368 828.641145,40.992 828.641145,50.976 C828.641145,63.456 819.905145,72.192 803.681145,72.192 Z" id="MAGNUStheMAGNUS" fill="#000000"></path>
    </g>
</svg>